<?xml version='1.0' encoding='iso-8859-1'?>
<svg version="1.1" xmlns="http://www.w3.org/2000/svg" viewBox="0 0 470.001 470.001" xmlns:xlink="http://www.w3.org/1999/xlink" enable-background="new 0 0 470.001 470.001">
  <g>
    <path d="m465.988,6.183c-3.305-3.987-8.224-6.183-13.849-6.183-1.398,0-2.841,0.138-4.29,0.411l-87.295,16.461c-0.344,0.066-0.669,0.158-0.99,0.265-0.064,0.021-0.127,0.043-0.19,0.066-0.625,0.228-1.224,0.541-1.783,0.94-0.062,0.044-0.122,0.088-0.182,0.134-0.266,0.203-0.526,0.418-0.769,0.661l-61.719,61.719c-0.004,0.004-30.859,30.859-30.859,30.859-0.006,0.006-61.723,61.723-61.723,61.723-1.407,1.407-2.197,3.314-2.197,5.304s0.79,3.896 2.197,5.304l17.715,17.715-71.923,71.924c-1.407,1.407-2.197,3.314-2.197,5.304s0.79,3.896 2.197,5.304l13.584,13.584-83.73,83.73c-2.929,2.93-2.929,7.678 0,10.607 1.464,1.464 3.384,2.196 5.303,2.196s3.839-0.732 5.303-2.196l83.731-83.731 13.585,13.585c1.464,1.464 3.384,2.196 5.303,2.196s3.839-0.732 5.303-2.196l71.924-71.924 17.716,17.715c1.464,1.464 3.384,2.196 5.303,2.196s3.839-0.732 5.303-2.196l154.301-154.301c0.244-0.244 0.459-0.504 0.663-0.771 0.045-0.059 0.088-0.118 0.131-0.178 0.402-0.562 0.717-1.165 0.945-1.794 0.021-0.058 0.041-0.115 0.061-0.173 0.109-0.325 0.201-0.654 0.265-0.989 0.002-0.009 16.463-87.305 16.463-87.305 1.152-6.106-0.127-11.777-3.6-15.966zm-51.09,122.127l-57.298-57.298c-2.929-2.928-7.678-2.928-10.606,0-2.929,2.93-2.929,7.678 0,10.607l57.297,57.297-20.253,20.253-73.208-73.206 51.114-51.114 73.207,73.208-20.253,20.253zm-61.721,61.721l-15.91-15.91c-2.929-2.928-7.678-2.928-10.606,0-2.929,2.93-2.929,7.678 0,10.607l15.91,15.91-20.253,20.253-73.208-73.207 20.253-20.253 36.084,36.084c1.464,1.464 3.384,2.196 5.303,2.196s3.839-0.732 5.303-2.196c2.929-2.93 2.929-7.678 0-10.607l-36.084-36.084 20.253-20.253 73.208,73.207-20.253,20.253zm-161.967,115.928l-13.58-13.58c-0.01-0.01-13.59-13.589-13.59-13.589l66.621-66.621 27.17,27.169-66.621,66.621zm100.247-54.208l-17.715-17.715c-0.002-0.002-37.774-37.774-37.774-37.774-0.007-0.007-17.719-17.719-17.719-17.719l20.254-20.254 73.208,73.207-20.254,20.255zm163.391-232.38l-13.829,73.34-63.73-63.73 73.339-13.83c0.534-0.101 1.042-0.151 1.511-0.151 0.625,0 1.756,0.098 2.302,0.757 0.555,0.67 0.707,2.021 0.407,3.614z"/>
    <path d="m49.881,409.512l-25.487,25.486c-2.929,2.93-2.929,7.678 0,10.607 1.464,1.464 3.384,2.196 5.303,2.196 1.919,0 3.839-0.732 5.303-2.196l25.487-25.486c2.929-2.93 2.929-7.678 0-10.607-2.927-2.928-7.676-2.928-10.606-5.68434e-14z"/>
    <path d="m83.288,418.956c-4.142,0-7.5,3.357-7.5,7.5v36.044c0,4.143 3.358,7.5 7.5,7.5s7.5-3.357 7.5-7.5v-36.044c0-4.142-3.358-7.5-7.5-7.5z"/>
    <path d="m116.694,409.512c-2.929-2.928-7.678-2.928-10.606,0-2.929,2.93-2.929,7.678 0,10.607l25.487,25.486c1.464,1.464 3.384,2.196 5.303,2.196s3.839-0.732 5.303-2.196c2.929-2.93 2.929-7.678 0-10.607l-25.487-25.486z"/>
    <path d="m159.076,379.212h-33.361c-4.142,0-7.5,3.357-7.5,7.5s3.358,7.5 7.5,7.5h33.361c4.142,0 7.5-3.357 7.5-7.5s-3.358-7.5-7.5-7.5z"/>
    <path d="m83.288,351.788c4.142,0 7.5-3.357 7.5-7.5v-33.364c0-4.143-3.358-7.5-7.5-7.5s-7.5,3.357-7.5,7.5v33.364c0,4.143 3.358,7.5 7.5,7.5z"/>
    <path d="m35.001,327.819c-2.929-2.928-7.678-2.928-10.606,0-2.929,2.93-2.929,7.678 0,10.607l25.487,25.486c1.464,1.464 3.384,2.196 5.303,2.196s3.839-0.732 5.303-2.196c2.929-2.93 2.929-7.678 0-10.607l-25.487-25.486z"/>
    <path d="m51.044,386.712c0-4.143-3.358-7.5-7.5-7.5h-36.044c-4.142,0-7.5,3.357-7.5,7.5s3.358,7.5 7.5,7.5h36.044c4.142,0 7.5-3.357 7.5-7.5z"/>
  </g>
</svg>
