<?xml version="1.0" encoding="UTF-8" standalone="no"?>
<!-- Generator: Adobe Illustrator 16.0.0, SVG Export Plug-In . SVG Version: 6.00 Build 0)  -->

<svg
   xmlns:dc="http://purl.org/dc/elements/1.1/"
   xmlns:cc="http://creativecommons.org/ns#"
   xmlns:rdf="http://www.w3.org/1999/02/22-rdf-syntax-ns#"
   xmlns:svg="http://www.w3.org/2000/svg"
   xmlns="http://www.w3.org/2000/svg"
   xmlns:sodipodi="http://sodipodi.sourceforge.net/DTD/sodipodi-0.dtd"
   xmlns:inkscape="http://www.inkscape.org/namespaces/inkscape"
   version="1.1"
   id="Capa_1"
   x="0px"
   y="0px"
   width="48"
   height="62"
   viewBox="0 0 47.999998 61.999999"
   xml:space="preserve"
   inkscape:version="0.48.5 r10040"
   sodipodi:docname="map-marker-festival.svg"><metadata
     id="metadata41"><rdf:RDF><cc:Work
         rdf:about=""><dc:format>image/svg+xml</dc:format><dc:type
           rdf:resource="http://purl.org/dc/dcmitype/StillImage" /><dc:title></dc:title></cc:Work></rdf:RDF></metadata><defs
     id="defs39" /><sodipodi:namedview
     pagecolor="#ffffff"
     bordercolor="#666666"
     borderopacity="1"
     objecttolerance="10"
     gridtolerance="10"
     guidetolerance="10"
     inkscape:pageopacity="0"
     inkscape:pageshadow="2"
     inkscape:window-width="1077"
     inkscape:window-height="736"
     id="namedview37"
     showgrid="false"
     inkscape:zoom="4"
     inkscape:cx="-13.892997"
     inkscape:cy="36.93328"
     inkscape:window-x="51"
     inkscape:window-y="0"
     inkscape:window-maximized="0"
     inkscape:current-layer="Capa_1" /><g
     id="g7"
     transform="translate(0,-423.212)" /><g
     id="g9"
     transform="translate(0,-423.212)" /><g
     id="g11"
     transform="translate(0,-423.212)" /><g
     id="g13"
     transform="translate(0,-423.212)" /><g
     id="g15"
     transform="translate(0,-423.212)" /><g
     id="g17"
     transform="translate(0,-423.212)" /><g
     id="g19"
     transform="translate(0,-423.212)" /><g
     id="g21"
     transform="translate(0,-423.212)" /><g
     id="g23"
     transform="translate(0,-423.212)" /><g
     id="g25"
     transform="translate(0,-423.212)" /><g
     id="g27"
     transform="translate(0,-423.212)" /><g
     id="g29"
     transform="translate(0,-423.212)" /><g
     id="g31"
     transform="translate(0,-423.212)" /><g
     id="g33"
     transform="translate(0,-423.212)" /><g
     id="g35"
     transform="translate(0,-423.212)" /><g
     id="g3004"
     transform="matrix(0.12673442,0,0,0.12673442,-6.7465951,0.38020322)"><g
       transform="translate(0,-1)"
       style="fill:#90a9d1;fill-opacity:1;stroke:#839cc5;stroke-width:4;stroke-linejoin:miter;stroke-miterlimit:4;stroke-opacity:1;stroke-dasharray:none"
       id="g3"><path
         inkscape:connector-curvature="0"
         style="fill:#90a9d1;fill-opacity:1;stroke:#839cc5;stroke-width:4;stroke-linejoin:miter;stroke-miterlimit:4;stroke-opacity:1;stroke-dasharray:none"
         id="path5"
         d="M 242.606,0 C 142.124,0 60.651,81.473 60.651,181.955 c 0,100.482 151.631,303.257 181.956,303.257 30.326,0 181.955,-202.775 181.955,-303.257 C 424.562,81.473 343.089,0 242.606,0 z m 0,303.257 c -66.9,0 -121.302,-54.433 -121.302,-121.302 0,-66.869 54.402,-121.304 121.302,-121.304 66.902,0 121.302,54.435 121.302,121.304 0,66.869 -54.399,121.302 -121.302,121.302 z" /></g><g
       id="g3830"
       style="fill:#f7e336;fill-opacity:1;stroke:#839cc5;stroke-width:4;stroke-linejoin:miter;stroke-miterlimit:4;stroke-opacity:1;stroke-dasharray:none"><path
         sodipodi:nodetypes="sssss"
         inkscape:connector-curvature="0"
         d="m 242.606,303.257 c -66.9,0 -121.302,-54.433 -121.302,-121.302 0,-66.869 54.402,-121.304 121.302,-121.304 66.902,0 121.302,54.435 121.302,121.304 0,66.869 -54.399,121.302 -121.302,121.302 z"
         id="path3832"
         style="fill:#ffffff;fill-opacity:1;stroke:#839cc5;stroke-width:4;stroke-linejoin:miter;stroke-miterlimit:4;stroke-opacity:1;stroke-dasharray:none" /></g></g><g
     style="font-size:18px;font-style:normal;font-variant:normal;font-weight:bold;font-stretch:normal;line-height:125%;letter-spacing:0px;word-spacing:0px;fill:#90a9d1;fill-opacity:1;stroke:none;font-family:Arial;-inkscape-font-specification:Sans Bold"
     id="text3778"
     transform="translate(-0.031251,11.530273)"><path
       d="m 17.782227,11.886719 c -10e-7,-1.312493 0.196288,-2.414054 0.588867,-3.3046877 0.292967,-0.6562397 0.691404,-1.2451063 1.195312,-1.7666016 0.509763,-0.5214724 1.066403,-0.9081908 1.669922,-1.1601563 0.802729,-0.3398308 1.72851,-0.5097525 2.777344,-0.5097656 1.898428,1.31e-5 3.416005,0.5888797 4.552734,1.7666016 1.142566,1.1777445 1.713854,2.8154382 1.713867,4.9130856 -1.3e-5,2.080083 -0.565442,3.708987 -1.696289,4.886719 -1.130869,1.171875 -2.642587,1.757812 -4.535156,1.757813 -1.916021,-10e-7 -3.439457,-0.583008 -4.570312,-1.749024 -1.130861,-1.171872 -1.69629,-2.783199 -1.696289,-4.833984 m 2.680664,-0.08789 c -4e-6,1.458989 0.33691,2.56641 1.010742,3.322266 0.673823,0.750002 1.529291,1.125002 2.566406,1.125 1.037101,2e-6 1.88671,-0.372068 2.548828,-1.116211 0.667959,-0.749996 1.001943,-1.872066 1.001953,-3.366211 -10e-6,-1.476555 -0.325205,-2.5781161 -0.975586,-3.3046876 -0.64454,-0.726552 -1.502937,-1.0898329 -2.575195,-1.0898438 -1.072272,1.09e-5 -1.936528,0.3691512 -2.592773,1.1074219 -0.656254,0.7324309 -0.984379,1.8398515 -0.984375,3.3222655"
       id="path3783"
       inkscape:connector-curvature="0"
       style="fill:#90a9d1;fill-opacity:1" /></g></svg>