<?xml version="1.0" encoding="UTF-8" standalone="no"?>
<!-- Generator: Adobe Illustrator 16.0.0, SVG Export Plug-In . SVG Version: 6.00 Build 0)  -->

<svg
   xmlns:dc="http://purl.org/dc/elements/1.1/"
   xmlns:cc="http://creativecommons.org/ns#"
   xmlns:rdf="http://www.w3.org/1999/02/22-rdf-syntax-ns#"
   xmlns:svg="http://www.w3.org/2000/svg"
   xmlns="http://www.w3.org/2000/svg"
   xmlns:sodipodi="http://sodipodi.sourceforge.net/DTD/sodipodi-0.dtd"
   xmlns:inkscape="http://www.inkscape.org/namespaces/inkscape"
   version="1.1"
   id="Capa_1"
   x="0px"
   y="0px"
   width="48"
   height="62"
   viewBox="0 0 47.999998 61.999999"
   xml:space="preserve"
   inkscape:version="0.48.5 r10040"
   sodipodi:docname="map-marker-festival.svg"><metadata
     id="metadata41"><rdf:RDF><cc:Work
         rdf:about=""><dc:format>image/svg+xml</dc:format><dc:type
           rdf:resource="http://purl.org/dc/dcmitype/StillImage" /></cc:Work></rdf:RDF></metadata><defs
     id="defs39" /><sodipodi:namedview
     pagecolor="#ffffff"
     bordercolor="#666666"
     borderopacity="1"
     objecttolerance="10"
     gridtolerance="10"
     guidetolerance="10"
     inkscape:pageopacity="0"
     inkscape:pageshadow="2"
     inkscape:window-width="1077"
     inkscape:window-height="736"
     id="namedview37"
     showgrid="false"
     inkscape:zoom="4"
     inkscape:cx="-13.892997"
     inkscape:cy="36.93328"
     inkscape:window-x="165"
     inkscape:window-y="0"
     inkscape:window-maximized="0"
     inkscape:current-layer="Capa_1" /><g
     id="g7"
     transform="translate(0,-423.212)" /><g
     id="g9"
     transform="translate(0,-423.212)" /><g
     id="g11"
     transform="translate(0,-423.212)" /><g
     id="g13"
     transform="translate(0,-423.212)" /><g
     id="g15"
     transform="translate(0,-423.212)" /><g
     id="g17"
     transform="translate(0,-423.212)" /><g
     id="g19"
     transform="translate(0,-423.212)" /><g
     id="g21"
     transform="translate(0,-423.212)" /><g
     id="g23"
     transform="translate(0,-423.212)" /><g
     id="g25"
     transform="translate(0,-423.212)" /><g
     id="g27"
     transform="translate(0,-423.212)" /><g
     id="g29"
     transform="translate(0,-423.212)" /><g
     id="g31"
     transform="translate(0,-423.212)" /><g
     id="g33"
     transform="translate(0,-423.212)" /><g
     id="g35"
     transform="translate(0,-423.212)" /><g
     id="g3004"
     transform="matrix(0.12673442,0,0,0.12673442,-6.7465951,0.38020322)"><g
       transform="translate(0,-1)"
       style="fill:#f7e336;fill-opacity:1;stroke:#e5d231;stroke-width:4;stroke-linejoin:miter;stroke-miterlimit:4;stroke-opacity:1;stroke-dasharray:none"
       id="g3"><path
         inkscape:connector-curvature="0"
         style="fill:#f7e336;fill-opacity:1;stroke:#e5d231;stroke-width:4;stroke-linejoin:miter;stroke-miterlimit:4;stroke-opacity:1;stroke-dasharray:none"
         id="path5"
         d="M 242.606,0 C 142.124,0 60.651,81.473 60.651,181.955 c 0,100.482 151.631,303.257 181.956,303.257 30.326,0 181.955,-202.775 181.955,-303.257 C 424.562,81.473 343.089,0 242.606,0 z m 0,303.257 c -66.9,0 -121.302,-54.433 -121.302,-121.302 0,-66.869 54.402,-121.304 121.302,-121.304 66.902,0 121.302,54.435 121.302,121.304 0,66.869 -54.399,121.302 -121.302,121.302 z" /></g><g
       id="g3830"
       style="fill:#f7e336;fill-opacity:1;stroke:#e5d231;stroke-width:4;stroke-linejoin:miter;stroke-miterlimit:4;stroke-opacity:1;stroke-dasharray:none"><path
         sodipodi:nodetypes="sssss"
         inkscape:connector-curvature="0"
         d="m 242.606,303.257 c -66.9,0 -121.302,-54.433 -121.302,-121.302 0,-66.869 54.402,-121.304 121.302,-121.304 66.902,0 121.302,54.435 121.302,121.304 0,66.869 -54.399,121.302 -121.302,121.302 z"
         id="path3832"
         style="fill:#ffffff;fill-opacity:1;stroke:#e5d231;stroke-width:4;stroke-linejoin:miter;stroke-miterlimit:4;stroke-opacity:1;stroke-dasharray:none" /></g></g><g
     style="font-size:18px;font-style:normal;font-variant:normal;font-weight:bold;font-stretch:normal;line-height:125%;letter-spacing:0px;word-spacing:0px;fill:#f7e336;fill-opacity:1;stroke:none;font-family:Arial;-inkscape-font-specification:Sans Bold"
     id="text3003"
     transform="translate(0.506347,14)"><path
       d="m 19.077148,16 0,-12.8847656 8.833008,0 0,2.1796875 -6.231445,0 0,3.0498047 5.378906,0 0,2.1796874 -5.378906,0 0,5.475586 -2.601563,0"
       style="fill:#f7e336;fill-opacity:1"
       id="path3008"
       inkscape:connector-curvature="0" /></g></svg>