<?xml version="1.0" encoding="UTF-8" standalone="no"?>
<!-- Generator: Adobe Illustrator 16.0.0, SVG Export Plug-In . SVG Version: 6.00 Build 0)  -->

<svg
   xmlns:dc="http://purl.org/dc/elements/1.1/"
   xmlns:cc="http://creativecommons.org/ns#"
   xmlns:rdf="http://www.w3.org/1999/02/22-rdf-syntax-ns#"
   xmlns:svg="http://www.w3.org/2000/svg"
   xmlns="http://www.w3.org/2000/svg"
   xmlns:sodipodi="http://sodipodi.sourceforge.net/DTD/sodipodi-0.dtd"
   xmlns:inkscape="http://www.inkscape.org/namespaces/inkscape"
   version="1.1"
   id="Capa_1"
   x="0px"
   y="0px"
   width="48"
   height="62"
   viewBox="0 0 47.999998 61.999999"
   xml:space="preserve"
   inkscape:version="0.48.5 r10040"
   sodipodi:docname="map-marker-indoor.svg"><metadata
     id="metadata41"><rdf:RDF><cc:Work
         rdf:about=""><dc:format>image/svg+xml</dc:format><dc:type
           rdf:resource="http://purl.org/dc/dcmitype/StillImage" /><dc:title></dc:title></cc:Work></rdf:RDF></metadata><defs
     id="defs39" /><sodipodi:namedview
     pagecolor="#ffffff"
     bordercolor="#666666"
     borderopacity="1"
     objecttolerance="10"
     gridtolerance="10"
     guidetolerance="10"
     inkscape:pageopacity="0"
     inkscape:pageshadow="2"
     inkscape:window-width="1077"
     inkscape:window-height="736"
     id="namedview37"
     showgrid="false"
     inkscape:zoom="4"
     inkscape:cx="-13.892997"
     inkscape:cy="36.93328"
     inkscape:window-x="18"
     inkscape:window-y="0"
     inkscape:window-maximized="0"
     inkscape:current-layer="g3004" /><g
     id="g7"
     transform="translate(0,-423.212)" /><g
     id="g9"
     transform="translate(0,-423.212)" /><g
     id="g11"
     transform="translate(0,-423.212)" /><g
     id="g13"
     transform="translate(0,-423.212)" /><g
     id="g15"
     transform="translate(0,-423.212)" /><g
     id="g17"
     transform="translate(0,-423.212)" /><g
     id="g19"
     transform="translate(0,-423.212)" /><g
     id="g21"
     transform="translate(0,-423.212)" /><g
     id="g23"
     transform="translate(0,-423.212)" /><g
     id="g25"
     transform="translate(0,-423.212)" /><g
     id="g27"
     transform="translate(0,-423.212)" /><g
     id="g29"
     transform="translate(0,-423.212)" /><g
     id="g31"
     transform="translate(0,-423.212)" /><g
     id="g33"
     transform="translate(0,-423.212)" /><g
     id="g35"
     transform="translate(0,-423.212)" /><g
     id="g3004"
     transform="matrix(0.12673442,0,0,0.12673442,-6.7465951,0.38020322)"><g
       transform="translate(0,-1)"
       style="fill:#78c253;fill-opacity:1;stroke:#6ab842;stroke-width:4;stroke-linejoin:miter;stroke-miterlimit:4;stroke-opacity:1;stroke-dasharray:none"
       id="g3"><path
         inkscape:connector-curvature="0"
         style="fill:#78c253;fill-opacity:1;stroke:#6ab842;stroke-width:4;stroke-linejoin:miter;stroke-miterlimit:4;stroke-opacity:1;stroke-dasharray:none"
         id="path5"
         d="M 242.606,0 C 142.124,0 60.651,81.473 60.651,181.955 c 0,100.482 151.631,303.257 181.956,303.257 30.326,0 181.955,-202.775 181.955,-303.257 C 424.562,81.473 343.089,0 242.606,0 z m 0,303.257 c -66.9,0 -121.302,-54.433 -121.302,-121.302 0,-66.869 54.402,-121.304 121.302,-121.304 66.902,0 121.302,54.435 121.302,121.304 0,66.869 -54.399,121.302 -121.302,121.302 z" /></g><g
       id="g3830"
       style="fill:#f7e336;fill-opacity:1;stroke:#6ab842;stroke-width:4;stroke-linejoin:miter;stroke-miterlimit:4;stroke-opacity:1;stroke-dasharray:none"><path
         sodipodi:nodetypes="sssss"
         inkscape:connector-curvature="0"
         d="m 242.606,303.257 c -66.9,0 -121.302,-54.433 -121.302,-121.302 0,-66.869 54.402,-121.304 121.302,-121.304 66.902,0 121.302,54.435 121.302,121.304 0,66.869 -54.399,121.302 -121.302,121.302 z"
         id="path3832"
         style="fill:#ffffff;fill-opacity:1;stroke:#6ab842;stroke-width:4;stroke-linejoin:miter;stroke-miterlimit:4;stroke-opacity:1;stroke-dasharray:none" /></g><g
       style="font-size:142.02929688000000397px;font-style:normal;font-variant:normal;font-weight:bold;font-stretch:normal;line-height:125%;letter-spacing:0px;word-spacing:0px;fill:#78c253;fill-opacity:1;stroke:none;font-family:Arial;-inkscape-font-specification:Sans Bold"
       id="text3830"><path
         d="m 175.37145,231.98174 0,-101.66746 20.52767,0 0,101.66746 -20.52767,0"
         style="fill:#78c253;fill-opacity:1"
         id="path3835" /><path
         d="m 211.22552,181.77216 c 0,-10.35624 1.54882,-19.04813 4.64647,-26.07569 2.31166,-5.17807 5.45554,-9.82453 9.43163,-13.9394 4.02229,-4.11469 8.41447,-7.16609 13.17655,-9.15423 6.33395,-2.68144 13.63883,-4.02221 21.91468,-4.02232 14.97958,1.1e-4 26.95404,4.64657 35.92342,13.9394 9.01543,9.29301 13.52319,22.21526 13.5233,38.76679 -1.1e-4,16.41292 -4.46163,29.26582 -13.3846,38.55873 -8.92314,9.2467 -20.85137,13.87005 -35.78472,13.87005 -15.1184,0 -27.13909,-4.60023 -36.06213,-13.8007 -8.92307,-9.24667 -13.3846,-21.96087 -13.3846,-38.14263 m 21.15183,-0.6935 c -3e-5,11.51218 2.65839,20.2503 7.97528,26.21439 5.31681,5.9179 12.06689,8.87685 20.25027,8.87683 8.18326,2e-5 14.88711,-2.93581 20.11157,-8.80748 5.27053,-5.91786 7.90584,-14.77156 7.90592,-26.56114 -8e-5,-11.65078 -2.56604,-20.34267 -7.69787,-26.0757 -5.08576,-5.73287 -11.85896,-8.59934 -20.31962,-8.59943 -8.46078,9e-5 -15.28021,2.9128 -20.45832,8.73814 -5.17819,5.77925 -7.76726,14.51738 -7.76723,26.21439"
         style="fill:#78c253;fill-opacity:1"
         id="path3837" /></g></g></svg>