<?xml version="1.0" encoding="UTF-8" standalone="no"?>
<!-- Generator: Adobe Illustrator 16.0.0, SVG Export Plug-In . SVG Version: 6.00 Build 0)  -->

<svg
   xmlns:dc="http://purl.org/dc/elements/1.1/"
   xmlns:cc="http://creativecommons.org/ns#"
   xmlns:rdf="http://www.w3.org/1999/02/22-rdf-syntax-ns#"
   xmlns:svg="http://www.w3.org/2000/svg"
   xmlns="http://www.w3.org/2000/svg"
   xmlns:sodipodi="http://sodipodi.sourceforge.net/DTD/sodipodi-0.dtd"
   xmlns:inkscape="http://www.inkscape.org/namespaces/inkscape"
   version="1.1"
   id="Capa_1"
   x="0px"
   y="0px"
   width="48"
   height="62"
   viewBox="0 0 47.999998 61.999999"
   xml:space="preserve"
   inkscape:version="0.48.5 r10040"
   sodipodi:docname="map-marker-point.svg"><metadata
     id="metadata41"><rdf:RDF><cc:Work
         rdf:about=""><dc:format>image/svg+xml</dc:format><dc:type
           rdf:resource="http://purl.org/dc/dcmitype/StillImage" /><dc:title></dc:title></cc:Work></rdf:RDF></metadata><defs
     id="defs39" /><sodipodi:namedview
     pagecolor="#ffffff"
     bordercolor="#666666"
     borderopacity="1"
     objecttolerance="10"
     gridtolerance="10"
     guidetolerance="10"
     inkscape:pageopacity="0"
     inkscape:pageshadow="2"
     inkscape:window-width="1077"
     inkscape:window-height="736"
     id="namedview37"
     showgrid="false"
     inkscape:zoom="4"
     inkscape:cx="17.732003"
     inkscape:cy="36.93328"
     inkscape:window-x="3"
     inkscape:window-y="13"
     inkscape:window-maximized="0"
     inkscape:current-layer="Capa_1" /><g
     id="g7"
     transform="translate(0,-423.212)" /><g
     id="g9"
     transform="translate(0,-423.212)" /><g
     id="g11"
     transform="translate(0,-423.212)" /><g
     id="g13"
     transform="translate(0,-423.212)" /><g
     id="g15"
     transform="translate(0,-423.212)" /><g
     id="g17"
     transform="translate(0,-423.212)" /><g
     id="g19"
     transform="translate(0,-423.212)" /><g
     id="g21"
     transform="translate(0,-423.212)" /><g
     id="g23"
     transform="translate(0,-423.212)" /><g
     id="g25"
     transform="translate(0,-423.212)" /><g
     id="g27"
     transform="translate(0,-423.212)" /><g
     id="g29"
     transform="translate(0,-423.212)" /><g
     id="g31"
     transform="translate(0,-423.212)" /><g
     id="g33"
     transform="translate(0,-423.212)" /><g
     id="g35"
     transform="translate(0,-423.212)" /><g
     id="g3004"
     transform="matrix(0.12673442,0,0,0.12673442,-6.7465951,0.38020322)"><g
       transform="translate(0,-1)"
       style="fill:#de443a;fill-opacity:1;stroke:#d23a31;stroke-width:4;stroke-linejoin:miter;stroke-miterlimit:4;stroke-opacity:1;stroke-dasharray:none"
       id="g3"><path
         inkscape:connector-curvature="0"
         style="fill:#de443a;fill-opacity:1;stroke:#d23a31;stroke-width:4;stroke-linejoin:miter;stroke-miterlimit:4;stroke-opacity:1;stroke-dasharray:none"
         id="path5"
         d="M 242.606,0 C 142.124,0 60.651,81.473 60.651,181.955 c 0,100.482 151.631,303.257 181.956,303.257 30.326,0 181.955,-202.775 181.955,-303.257 C 424.562,81.473 343.089,0 242.606,0 z m 0,303.257 c -66.9,0 -121.302,-54.433 -121.302,-121.302 0,-66.869 54.402,-121.304 121.302,-121.304 66.902,0 121.302,54.435 121.302,121.304 0,66.869 -54.399,121.302 -121.302,121.302 z" /></g><g
       id="g3830"
       style="fill:#f7e336;fill-opacity:1;stroke:#d23a31;stroke-width:4;stroke-linejoin:miter;stroke-miterlimit:4;stroke-opacity:1;stroke-dasharray:none"><path
         sodipodi:nodetypes="sssss"
         inkscape:connector-curvature="0"
         d="m 242.606,303.257 c -66.9,0 -121.302,-54.433 -121.302,-121.302 0,-66.869 54.402,-121.304 121.302,-121.304 66.902,0 121.302,54.435 121.302,121.304 0,66.869 -54.399,121.302 -121.302,121.302 z"
         id="path3832"
         style="fill:#ffffff;fill-opacity:1;stroke:#d23a31;stroke-width:4;stroke-linejoin:miter;stroke-miterlimit:4;stroke-opacity:1;stroke-dasharray:none" /></g></g><g
     style="font-size:18px;font-style:normal;font-variant:normal;font-weight:bold;font-stretch:normal;line-height:125%;letter-spacing:0px;word-spacing:0px;fill:#de443a;fill-opacity:1;stroke:none;font-family:Arial;-inkscape-font-specification:Sans Bold"
     id="text3785"
     transform="translate(-6.2143565,0.78027252)"><path
       d="m 33.303711,24.262695 2.522461,0.799805 c -0.386731,1.406253 -1.031261,2.45215 -1.933594,3.137695 -0.896493,0.679688 -2.036141,1.019531 -3.418945,1.019532 -1.710943,-10e-7 -3.117191,-0.583008 -4.21875,-1.749024 -1.101564,-1.171872 -1.652345,-2.77148 -1.652344,-4.798828 -1e-6,-2.144523 0.55371,-3.808584 1.661133,-4.992188 1.107418,-1.18944 2.563471,-1.784166 4.368164,-1.784179 1.576163,1.3e-5 2.856436,0.465833 3.84082,1.397461 0.585926,0.550792 1.025379,1.341807 1.31836,2.373047 L 33.21582,20.28125 C 33.063467,19.613291 32.744132,19.085947 32.257812,18.699219 31.777336,18.312511 31.191399,18.119152 30.5,18.119141 c -0.955084,1.1e-5 -1.73145,0.342784 -2.329102,1.02832 -0.5918,0.685556 -0.887698,1.795906 -0.887695,3.331055 -3e-6,1.628911 0.292965,2.789066 0.878906,3.480468 0.585933,0.691409 1.347651,1.037112 2.285157,1.03711 0.691398,2e-6 1.286124,-0.219725 1.784179,-0.65918 0.498038,-0.43945 0.85546,-1.130856 1.072266,-2.074219"
       id="path3790"
       inkscape:connector-curvature="0" /></g></svg>