<?xml version="1.0" encoding="UTF-8" standalone="no"?>
<!-- Generated by IcoMoon.io -->

<svg
   xmlns:dc="http://purl.org/dc/elements/1.1/"
   xmlns:cc="http://creativecommons.org/ns#"
   xmlns:rdf="http://www.w3.org/1999/02/22-rdf-syntax-ns#"
   xmlns:svg="http://www.w3.org/2000/svg"
   xmlns="http://www.w3.org/2000/svg"
   xmlns:sodipodi="http://sodipodi.sourceforge.net/DTD/sodipodi-0.dtd"
   xmlns:inkscape="http://www.inkscape.org/namespaces/inkscape"
   version="1.1"
   width="20"
   height="20"
   viewBox="0 0 20 20"
   id="svg2"
   inkscape:version="0.48.5 r10040"
   sodipodi:docname="heart-filled.svg">
  <metadata
     id="metadata10">
    <rdf:RDF>
      <cc:Work
         rdf:about="">
        <dc:format>image/svg+xml</dc:format>
        <dc:type
           rdf:resource="http://purl.org/dc/dcmitype/StillImage" />
      </cc:Work>
    </rdf:RDF>
  </metadata>
  <defs
     id="defs8" />
  <sodipodi:namedview
     pagecolor="#ffffff"
     bordercolor="#666666"
     borderopacity="1"
     objecttolerance="10"
     gridtolerance="10"
     guidetolerance="10"
     inkscape:pageopacity="0"
     inkscape:pageshadow="2"
     inkscape:window-width="973"
     inkscape:window-height="667"
     id="namedview6"
     showgrid="false"
     inkscape:zoom="11.8"
     inkscape:cx="10"
     inkscape:cy="10"
     inkscape:window-x="122"
     inkscape:window-y="24"
     inkscape:window-maximized="0"
     inkscape:current-layer="svg2" />
  <path
     d="M 9.5,19 C 9.416,19 9.333,18.979 9.257,18.937 9.163,18.885 6.931,17.636 4.665,15.59 3.324,14.38 2.254,13.142 1.482,11.91 0.498,10.339 0,8.771 0,7.25 0,4.355 2.355,2 5.25,2 6.23,2 7.271,2.367 8.181,3.034 8.713,3.424 9.166,3.894 9.5,4.393 9.834,3.894 10.287,3.424 10.819,3.034 11.729,2.367 12.77,2 13.75,2 16.645,2 19,4.355 19,7.25 c 0,1.521 -0.499,3.089 -1.482,4.66 -0.771,1.232 -1.842,2.47 -3.182,3.68 C 12.07,17.636 9.838,18.885 9.744,18.937 9.668,18.979 9.585,19 9.501,19 z"
     id="path4"
     inkscape:connector-curvature="0"
     style="fill-opacity:1"
     sodipodi:nodetypes="scccsscccsscccss" />
</svg>
