<?xml version="1.0" encoding="UTF-8" standalone="no"?>
<svg
   xmlns:dc="http://purl.org/dc/elements/1.1/"
   xmlns:cc="http://creativecommons.org/ns#"
   xmlns:rdf="http://www.w3.org/1999/02/22-rdf-syntax-ns#"
   xmlns:svg="http://www.w3.org/2000/svg"
   xmlns="http://www.w3.org/2000/svg"
   xmlns:sodipodi="http://sodipodi.sourceforge.net/DTD/sodipodi-0.dtd"
   xmlns:inkscape="http://www.inkscape.org/namespaces/inkscape"
   width="20"
   height="20"
   viewBox="0 -58.505859 20 20"
   id="svg2"
   version="1.1"
   inkscape:version="0.48.5 r10040"
   sodipodi:docname="e755.svg">
  <metadata
     id="metadata10">
    <rdf:RDF>
      <cc:Work
         rdf:about="">
        <dc:format>image/svg+xml</dc:format>
        <dc:type
           rdf:resource="http://purl.org/dc/dcmitype/StillImage" />
        <dc:title></dc:title>
      </cc:Work>
    </rdf:RDF>
  </metadata>
  <defs
     id="defs8" />
  <sodipodi:namedview
     pagecolor="#ffffff"
     bordercolor="#666666"
     borderopacity="1"
     objecttolerance="10"
     gridtolerance="10"
     guidetolerance="10"
     inkscape:pageopacity="0"
     inkscape:pageshadow="2"
     inkscape:window-width="841"
     inkscape:window-height="616"
     id="namedview6"
     showgrid="false"
     inkscape:zoom="7.8666667"
     inkscape:cx="15"
     inkscape:cy="15"
     inkscape:window-x="0"
     inkscape:window-y="0"
     inkscape:window-maximized="0"
     inkscape:current-layer="svg2" />
  <path
     d="m 15.9961,-46.503914 c -0.345049,0 -0.678726,0.0424 -1.000997,0.126955 -0.322248,0.08471 -0.625,0.205076 -0.908203,0.361341 -0.2832,0.156257 -0.5436,0.343423 -0.781228,0.561506 -0.237631,0.218114 -0.447589,0.460613 -0.6299,0.727553 l -4.9023331,-2.451186 c 0.039062,-0.104167 0.071629,-0.209958 0.097662,-0.317377 0.02605,-0.10743 0.048839,-0.216455 0.068351,-0.327148 0.019517,-0.110687 0.034218,-0.222971 0.04393,-0.336897 0.00972,-0.113947 0.014668,-0.229511 0.014668,-0.346692 0,-0.110689 -0.00499,-0.222973 -0.014668,-0.3369 -0.00972,-0.113955 -0.024445,-0.227869 -0.04393,-0.3418 -0.019501,-0.113954 -0.042345,-0.224608 -0.068351,-0.332038 -0.02605,-0.107418 -0.058599,-0.21321 -0.097662,-0.317377 l 4.9023331,-2.451185 c 0.182311,0.273434 0.392269,0.5192 0.6299,0.737311 0.237628,0.218089 0.498028,0.405284 0.781228,0.56151 0.283203,0.15625 0.585955,0.276713 0.908203,0.361344 0.322271,0.08471 0.655948,0.126952 1.000997,0.126952 0.553391,0 1.0726,-0.105789 1.5576,-0.317378 0.485029,-0.211588 0.909836,-0.498066 1.274415,-0.859381 0.364585,-0.361343 0.651046,-0.784513 0.859385,-1.269546 0.20834,-0.485012 0.3125,-1.004212 0.3125,-1.557612 0,-0.553391 -0.10416,-1.0726 -0.3125,-1.5576 -0.208339,-0.48503 -0.4948,-0.9082 -0.859385,-1.269553 -0.364579,-0.361308 -0.789386,-0.647785 -1.274415,-0.859372 -0.485,-0.211584 -1.004209,-0.317375 -1.5576,-0.317375 -0.546872,0 -1.062822,0.105791 -1.547847,0.317375 -0.485029,0.211587 -0.909836,0.498064 -1.274415,0.859372 -0.364583,0.361353 -0.651058,0.784523 -0.859382,1.269553 -0.208348,0.485 -0.312511,1.004209 -0.312511,1.5576 0,0.1172 0.0055,0.232755 0.01473,0.34668 0.0099,0.113925 0.02449,0.226251 0.04392,0.33692 0.01946,0.110668 0.04242,0.219736 0.06842,0.327155 0.02606,0.107425 0.05865,0.213217 0.09765,0.317384 l -4.9023356,2.451165 c -0.1822978,-0.266916 -0.3922565,-0.509451 -0.6298861,-0.727532 -0.2376298,-0.218115 -0.4980461,-0.405286 -0.7812499,-0.561538 -0.2832026,-0.156234 -0.5859369,-0.276679 -0.9082027,-0.361315 -0.3222657,-0.08471 -0.6559241,-0.126954 -1.0009773,-0.126954 -0.5533849,0 -1.0725903,0.104171 -1.5576164,0.312484 -0.4850255,0.208351 -0.9098304,0.494796 -1.2744146,0.859376 -0.36458255,0.364578 -0.65104134,0.789385 -0.85937462,1.27442 C 0.10416676,-49.568695 0,-49.052745 0,-48.505859 c 0,0.553378 0.10416676,1.072586 0.3125,1.557625 0.20833324,0.485029 0.49479154,0.90983 0.8593744,1.274415 0.3645836,0.36458 0.7893895,0.651043 1.2744156,0.859369 0.4850245,0.208324 1.004231,0.312491 1.5576166,0.312491 0.3450514,0 0.6787097,-0.04239 1.0009771,-0.126955 0.3222663,-0.08471 0.625,-0.205059 0.9082029,-0.361311 0.2832034,-0.156269 0.5436199,-0.343435 0.7812481,-0.561534 0.2376308,-0.218096 0.4475907,-0.4606 0.6298859,-0.727548 l 4.9023324,2.451174 c -0.03905,0.104174 -0.07156,0.209974 -0.09765,0.317376 -0.02606,0.10743 -0.04884,0.21648 -0.06842,0.327172 -0.01951,0.110665 -0.03427,0.222981 -0.04392,0.336896 -0.0099,0.11393 -0.01473,0.229512 -0.01473,0.346695 0,0.54686 0.10417,1.064435 0.312501,1.552725 0.208326,0.488295 0.494794,0.913103 0.859374,1.27442 0.364578,0.361318 0.789384,0.646151 1.274417,0.85449 0.485027,0.20834 1.00097,0.3125 1.547855,0.3125 0.553383,0 1.072588,-0.10416 1.557615,-0.3125 0.48502,-0.208339 0.909824,-0.493172 1.274411,-0.85449 0.364587,-0.361317 0.65104,-0.786125 0.859381,-1.27442 0.208326,-0.48829 0.312485,-1.005865 0.312485,-1.552725 0,-0.553381 -0.104159,-1.072587 -0.312485,-1.557612 -0.208341,-0.485029 -0.494794,-0.908205 -0.859381,-1.269553 -0.364587,-0.361326 -0.789391,-0.647787 -1.274411,-0.859372 -0.485024,-0.211583 -1.004232,-0.317383 -1.557613,-0.317383 z m 0,-10.99608 c 0.416651,0 0.807279,0.07815 1.171862,0.234376 0.364583,0.156257 0.681964,0.371075 0.952141,0.644517 0.270197,0.273447 0.485036,0.59082 0.644552,0.952142 0.15949,0.361353 0.239245,0.750349 0.239245,1.167 0,0.416663 -0.0797,0.805661 -0.239245,1.167 -0.159516,0.361336 -0.374355,0.678714 -0.644552,0.952155 -0.270177,0.273444 -0.587558,0.488262 -0.952141,0.644515 -0.364583,0.156268 -0.755211,0.234375 -1.171862,0.234375 -0.410169,0 -0.797539,-0.07815 -1.162123,-0.234375 -0.364576,-0.156253 -0.681949,-0.371071 -0.952133,-0.644515 -0.270187,-0.273441 -0.485029,-0.590819 -0.644544,-0.952155 -0.159501,-0.361339 -0.239245,-0.750337 -0.239245,-1.167 0,-0.416651 0.07969,-0.805647 0.239245,-1.167 0.159515,-0.361322 0.374357,-0.678695 0.644544,-0.952142 0.270184,-0.273442 0.587557,-0.48826 0.952133,-0.644517 0.364584,-0.156265 0.751954,-0.234376 1.162123,-0.234376 z M 4.0039066,-45.498042 c -0.4166675,0 -0.8072922,-0.0797 -1.1718766,-0.239272 -0.3645808,-0.15949 -0.6819643,-0.374337 -0.9521464,-0.644513 -0.2701826,-0.270181 -0.4850276,-0.58757 -0.6445336,-0.952146 -0.1595024,-0.364586 -0.23925657,-0.75521 -0.23925657,-1.171886 0,-0.410146 0.0797453,-0.797516 0.23925657,-1.1621 0.159506,-0.3646 0.374351,-0.681986 0.6445336,-0.952163 0.2701821,-0.270188 0.5875656,-0.485036 0.9521464,-0.644521 0.3645844,-0.159516 0.7552091,-0.239271 1.1718766,-0.239271 0.4101571,0 0.7975241,0.0797 1.1621079,0.239271 0.3645835,0.159485 0.6819684,0.374333 0.9521505,0.644521 0.2701826,0.270177 0.485025,0.587563 0.644531,0.952163 0.159505,0.364584 0.2392543,0.751954 0.2392543,1.1621 0,0.416676 -0.079745,0.8073 -0.2392543,1.171886 -0.159506,0.364576 -0.3743484,0.681965 -0.644531,0.952146 -0.2701821,0.270176 -0.587567,0.485023 -0.9521505,0.644513 -0.3645838,0.15952 -0.7519508,0.239272 -1.1621079,0.239272 z M 15.9961,-39.501959 c -0.410169,0 -0.797539,-0.07816 -1.162123,-0.234379 -0.364576,-0.156226 -0.681949,-0.371074 -0.952133,-0.644522 -0.270187,-0.273446 -0.485029,-0.592454 -0.644544,-0.957038 -0.159501,-0.364582 -0.239245,-0.751938 -0.239245,-1.162096 0,-0.416675 0.07969,-0.807304 0.239245,-1.171889 0.159515,-0.364576 0.374357,-0.681948 0.644544,-0.952132 0.270184,-0.270187 0.587557,-0.483397 0.952133,-0.639663 0.364584,-0.156251 0.751954,-0.234364 1.162123,-0.234364 0.416651,0 0.807279,0.07815 1.171862,0.234364 0.364583,0.156266 0.681964,0.369476 0.952141,0.639663 0.270197,0.270184 0.485036,0.587556 0.644552,0.952132 0.15949,0.364585 0.239245,0.755214 0.239245,1.171889 0,0.410158 -0.0797,0.797514 -0.239245,1.162096 -0.159516,0.364584 -0.374355,0.683592 -0.644552,0.957038 -0.270177,0.273448 -0.587558,0.488296 -0.952141,0.644522 -0.364583,0.15625 -0.755211,0.234379 -1.171862,0.234379 z m 0,0"
     id="path4"
     inkscape:connector-curvature="0" />
</svg>
