<?xml version="1.0" encoding="UTF-8" standalone="no"?>
<!-- Generated by IcoMoon.io -->

<svg
   xmlns:dc="http://purl.org/dc/elements/1.1/"
   xmlns:cc="http://creativecommons.org/ns#"
   xmlns:rdf="http://www.w3.org/1999/02/22-rdf-syntax-ns#"
   xmlns:svg="http://www.w3.org/2000/svg"
   xmlns="http://www.w3.org/2000/svg"
   xmlns:sodipodi="http://sodipodi.sourceforge.net/DTD/sodipodi-0.dtd"
   xmlns:inkscape="http://www.inkscape.org/namespaces/inkscape"
   version="1.1"
   width="20"
   height="20"
   viewBox="0 0 20 20"
   id="svg2"
   inkscape:version="0.48.5 r10040"
   sodipodi:docname="star-filled.svg">
  <metadata
     id="metadata10">
    <rdf:RDF>
      <cc:Work
         rdf:about="">
        <dc:format>image/svg+xml</dc:format>
        <dc:type
           rdf:resource="http://purl.org/dc/dcmitype/StillImage" />
        <dc:title />
      </cc:Work>
    </rdf:RDF>
  </metadata>
  <defs
     id="defs8" />
  <sodipodi:namedview
     pagecolor="#ffffff"
     bordercolor="#666666"
     borderopacity="1"
     objecttolerance="10"
     gridtolerance="10"
     guidetolerance="10"
     inkscape:pageopacity="0"
     inkscape:pageshadow="2"
     inkscape:window-width="640"
     inkscape:window-height="480"
     id="namedview6"
     showgrid="false"
     inkscape:zoom="11.8"
     inkscape:cx="10"
     inkscape:cy="10"
     inkscape:window-x="0"
     inkscape:window-y="0"
     inkscape:window-maximized="0"
     inkscape:current-layer="svg2" />
  <path
     d="m 15.5,19 c -0.082,0 -0.164,-0.02 -0.239,-0.061 L 10,16.07 4.739,18.939 C 4.571,19.031 4.366,19.018 4.21,18.907 4.054,18.796 3.975,18.606 4.007,18.417 L 4.965,12.671 1.147,8.853 C 1.015,8.721 0.967,8.525 1.024,8.347 1.081,8.169 1.233,8.037 1.418,8.006 L 7.167,7.048 9.553,2.276 C 9.638,2.107 9.811,2 10,2 c 0.189,0 0.363,0.107 0.447,0.276 l 2.386,4.772 5.749,0.958 c 0.185,0.031 0.337,0.162 0.394,0.341 0.057,0.179 0.01,0.374 -0.123,0.506 l -3.818,3.818 0.958,5.746 c 0.031,0.189 -0.048,0.379 -0.203,0.49 C 15.704,18.968 15.602,19 15.5,19 z"
     id="path4"
     inkscape:connector-curvature="0"
     sodipodi:nodetypes="scccsccsscccscccsccccs" />
</svg>
